<svg id="Layer_1" data-name="Layer 1" xmlns="http://www.w3.org/2000/svg" viewBox="0 0 120 120"><defs><style>.cls-1{fill:#7289da;}.cls-2{fill:#fff;}</style></defs><title>discord</title><path class="cls-1" d="M120,60A60,60,0,1,1,60,0,60,60,0,0,1,120,60Z"/><path class="cls-2" d="M88.92,36.65C82,31,71,30.05,70.57,30a1.71,1.71,0,0,0-1.72,1c0,.05-.26.6-.53,1.47a42.15,42.15,0,0,1,15.3,5.57,1.79,1.79,0,0,1,.56,2.43,1.74,1.74,0,0,1-2.4.57C73,35.57,62.1,35.3,60,35.3s-13,.27-21.78,5.78a1.71,1.71,0,0,1-2.39-.57,1.77,1.77,0,0,1,.56-2.43,42.29,42.29,0,0,1,15.29-5.57c-.27-.87-.51-1.42-.53-1.47a1.71,1.71,0,0,0-1.72-1C49,30.05,38,31,31,36.73c-3.66,3.44-11,23.54-11,40.92a1.77,1.77,0,0,0,.23.87c5.06,9,18.85,11.38,22,11.48h.05a1.73,1.73,0,0,0,1.41-.73l3.18-4.43c-8.58-2.25-13-6.07-13.21-6.3a1.78,1.78,0,0,1-.15-2.49A1.72,1.72,0,0,1,36,75.89c.1.1,8.17,7,24,7s24-7,24-7a1.72,1.72,0,0,1,2.45.17,1.78,1.78,0,0,1-.15,2.48c-.26.23-4.64,4-13.22,6.29l3.18,4.44a1.73,1.73,0,0,0,1.41.73h0c3.15-.1,17-2.46,22-11.48a1.8,1.8,0,0,0,.23-.87C100,60.27,92.67,40.17,88.92,36.65ZM48.69,70.59c-3.36,0-6.08-3.16-6.08-7.06s2.72-7.06,6.08-7.06,6.09,3.16,6.09,7.06S52.06,70.59,48.69,70.59Zm22.62,0c-3.36,0-6.09-3.16-6.09-7.06s2.72-7.06,6.09-7.06,6.08,3.16,6.08,7.06S74.67,70.59,71.31,70.59Z"/></svg>