<?xml version="1.0" encoding="utf-8"?>
<!-- Generator: Adobe Illustrator 24.0.1, SVG Export Plug-In . SVG Version: 6.00 Build 0)  -->
<svg version="1.1" id="Layer_1" xmlns="http://www.w3.org/2000/svg" xmlns:xlink="http://www.w3.org/1999/xlink" x="0px" y="0px"
	 viewBox="0 0 120 120" style="enable-background:new 0 0 120 120;" xml:space="preserve">
<style type="text/css">
	.st0{fill:#7289DA;}
	.st1{fill:#FFFFFF;}
</style>
<path class="st0" d="M120,60c0,33.1-26.9,60-60,60S0,93.1,0,60S26.9,0,60,0S120,26.9,120,60z"/>
<path class="st1" d="M88.9,36.7C82,31,71,30,70.6,30c-0.7-0.1-1.4,0.4-1.7,1c0,0-0.3,0.6-0.5,1.5c4.6,0.8,10.2,2.4,15.3,5.6
	c0.8,0.5,1.1,1.6,0.6,2.4c-0.3,0.5-0.9,0.8-1.5,0.8c-0.3,0-0.6-0.1-0.9-0.3C73,35.6,62.1,35.3,60,35.3s-13,0.3-21.8,5.8
	c-0.8,0.5-1.9,0.3-2.4-0.6c-0.5-0.8-0.3-1.9,0.6-2.4c5.1-3.2,10.7-4.8,15.3-5.6c-0.3-0.9-0.5-1.4-0.5-1.5c-0.3-0.7-1-1.1-1.7-1
	C49,30,38,31,31,36.7c-3.7,3.4-11,23.5-11,40.9c0,0.3,0.1,0.6,0.2,0.9c5.1,9,18.9,11.4,22,11.5c0,0,0,0,0.1,0c0.6,0,1.1-0.3,1.4-0.7
	l3.2-4.4c-8.6-2.3-13-6.1-13.2-6.3c-0.7-0.6-0.8-1.8-0.2-2.5c0.6-0.7,1.7-0.8,2.5-0.2c0.1,0.1,8.2,7,24,7c15.9,0,24-7,24-7
	c0.7-0.6,1.8-0.6,2.5,0.2c0.6,0.7,0.6,1.8-0.2,2.5c-0.3,0.2-4.6,4-13.2,6.3l3.2,4.4c0.3,0.5,0.9,0.7,1.4,0.7c0,0,0,0,0.1,0
	c3.1-0.1,16.9-2.5,22-11.5c0.1-0.3,0.2-0.6,0.2-0.9C100,60.3,92.7,40.2,88.9,36.7z M48.7,70.6c-3.4,0-6.1-3.2-6.1-7.1
	s2.7-7.1,6.1-7.1c3.4,0,6.1,3.2,6.1,7.1S52.1,70.6,48.7,70.6z M71.3,70.6c-3.4,0-6.1-3.2-6.1-7.1s2.7-7.1,6.1-7.1
	c3.4,0,6.1,3.2,6.1,7.1S74.7,70.6,71.3,70.6z"/>
</svg>
