<svg id="Layer_1" data-name="Layer 1" xmlns="http://www.w3.org/2000/svg" viewBox="0 0 120 120"><defs><style>.cls-1{fill:#231f20;}.cls-2{fill:#fff;}</style></defs><title>discord1</title><path class="cls-1" d="M120,60A60,60,0,1,1,60,0,60,60,0,0,1,120,60Z"/><path class="cls-2" d="M88.9,36.7C82,31,71,30,70.6,30a1.76,1.76,0,0,0-1.7,1,7.15,7.15,0,0,0-.5,1.5,42.74,42.74,0,0,1,15.3,5.6,1.71,1.71,0,0,1-.9,3.2,1.61,1.61,0,0,1-.9-.3C73,35.6,62.1,35.3,60,35.3s-13,.3-21.8,5.8a1.75,1.75,0,0,1-1.8-3,42.74,42.74,0,0,1,15.3-5.6c-.3-.9-.5-1.4-.5-1.5a1.62,1.62,0,0,0-1.7-1C49,30,38,31,31,36.7c-3.7,3.4-11,23.5-11,40.9a2.92,2.92,0,0,0,.2.9c5.1,9,18.9,11.4,22,11.5h.1a1.75,1.75,0,0,0,1.4-.7l3.2-4.4c-8.6-2.3-13-6.1-13.2-6.3A1.77,1.77,0,0,1,36,75.9c.1.1,8.2,7,24,7s24-7,24-7a1.77,1.77,0,1,1,2.3,2.7c-.3.2-4.6,4-13.2,6.3l3.2,4.4a1.62,1.62,0,0,0,1.4.7h.1c3.1-.1,16.9-2.5,22-11.5a2.92,2.92,0,0,0,.2-.9C100,60.3,92.7,40.2,88.9,36.7ZM48.7,70.6c-3.4,0-6.1-3.2-6.1-7.1s2.7-7.1,6.1-7.1,6.1,3.2,6.1,7.1S52.1,70.6,48.7,70.6Zm22.6,0c-3.4,0-6.1-3.2-6.1-7.1s2.7-7.1,6.1-7.1,6.1,3.2,6.1,7.1S74.7,70.6,71.3,70.6Z"/></svg>